<svg xmlns="http://www.w3.org/2000/svg" viewBox="0 0 500 500"><g id="freepik--Floor--inject-3"><ellipse id="freepik--floor--inject-3" cx="250" cy="353.97" rx="231.53" ry="133.67" style="fill:#f5f5f5"></ellipse></g><g id="freepik--Shadows--inject-3"><path id="freepik--Shadow--inject-3" d="M34.61,337.66l240.71,139a10.34,10.34,0,0,0,9.35,0l126.57-73.08c2.59-1.49,2.59-3.91,0-5.4l-240.7-139a10.36,10.36,0,0,0-9.36,0L34.61,332.26C32,333.75,32,336.16,34.61,337.66Z" style="fill:#e0e0e0"></path><ellipse id="freepik--shadow--inject-3" cx="409.49" cy="340.72" rx="64.23" ry="37.08" style="fill:#e0e0e0"></ellipse></g><g id="freepik--Plants--inject-3"><g id="freepik--plants--inject-3"><path d="M72,314.48s1.32-17.42-2.27-34.13-12.31-29.55-23-34.57S23.2,247.6,32.43,259s28.37,31.81,28.26,61.6Z" style="fill:#e0e0e0"></path><path d="M66.54,313.87h.13a.63.63,0,0,0,.61-.65c-1-36.49-13.15-54.75-27.19-64a.63.63,0,1,0-.7,1.05C53.24,259.4,65,277.3,66,313.26A.64.64,0,0,0,66.54,313.87Z" style="fill:#fff"></path><path d="M17.68,281.7c.21,2,1.84,3.56,3.4,4.87s3.25,2.71,3.67,4.69c.86,4-3.89,7.7-2.86,11.66a6.35,6.35,0,0,0,3.34,3.73,39,39,0,0,0,3.93,1.68,18.2,18.2,0,0,0,2,.48,9.12,9.12,0,0,1,5.38,2.41c2.19,2.37,1.91,6,2.69,9.16.94,3.75,3.17,5.95,8.28,7.74L65,318.2c4.36-4.45,5.9-12.05,1.88-17.21-2.41-3.1-6.92-3.5-9.2-6.6-2-2.78-.86-6.8-2.11-10s-4.58-4.32-7.72-4.87-6.48.75-9.55-.37-5.91-2.93-9.08-3.72A10.59,10.59,0,0,0,20,277,5.65,5.65,0,0,0,17.68,281.7Z" style="fill:#ebebeb"></path><path d="M50.31,297.49a.49.49,0,0,0-.14-.18c-8.23-11.66-21.12-17.2-25.47-18.18a.46.46,0,0,0-.2.9c4.13.92,16.1,6,24.16,16.73a25.25,25.25,0,0,0-20.07,1.74.48.48,0,0,0-.14.64.45.45,0,0,0,.37.2.41.41,0,0,0,.26-.07A24.28,24.28,0,0,1,49.58,298a38.13,38.13,0,0,1,6.84,23.52.47.47,0,0,0,.41.47h0a.46.46,0,0,0,.47-.44A39.08,39.08,0,0,0,50.31,297.49Z" style="fill:#fff"></path></g><g id="freepik--plants--inject-3"><path d="M445.42,315.37c-.17-12.13.06-23.32,6.22-40.57,5.16-14.47,18.43-29.07,27.39-28.45,8.35.58,10.2,10.83,2.69,20s-23.87,26.59-24.89,39.18l-3.19,14.3Z" style="fill:#e0e0e0"></path><path d="M449.12,312.3a.52.52,0,0,0,.41-.5c1.31-28.22,17.07-51.74,30.22-59a.55.55,0,0,0,.21-.73.53.53,0,0,0-.73-.21c-13.37,7.35-29.45,31.25-30.77,59.86a.54.54,0,0,0,.51.56A.38.38,0,0,0,449.12,312.3Z" style="fill:#fff"></path><path d="M456.72,321.53c.51-4.26,4.41-11.77,11.56-18.61,7.91-7.56,18.72-12.19,20.55-17.38,2.2-6.24-3.31-9.57-12.43-7.62-11,2.34-23.12,14.89-25.16,40.51Z" style="fill:#ebebeb"></path><path d="M454.26,317.54a.54.54,0,0,0,.4-.42c4.2-22.4,19.17-32.42,26.5-34.59a.53.53,0,0,0,.36-.66.53.53,0,0,0-.67-.36c-8.1,2.39-23,12.55-27.24,35.41a.53.53,0,0,0,.43.62A.41.41,0,0,0,454.26,317.54Z" style="fill:#fff"></path></g></g><g id="freepik--Clouds--inject-3"><g id="freepik--clouds--inject-3"><path d="M428.71,92.71l6.64,3.84c0-.3-.05-.59-.05-.88V93.74c0-3.42,2.4-4.81,5.37-3.1a10.61,10.61,0,0,1,3.2,3.08c.48-4.3,3.86-5.91,8-3.54,4.44,2.56,8,8.79,8,13.91V107a7.52,7.52,0,0,1-.68,3.34l5.52,3.18a6.57,6.57,0,0,1,3,5.16c0,1.9-1.33,2.67-3,1.72l-36-20.78a6.6,6.6,0,0,1-3-5.16C425.73,92.53,427.07,91.76,428.71,92.71Z" style="fill:#f0f0f0"></path><path d="M373.54,39.84l3.66,1.41V33.18c0-6.4,5.11-7.93,10.65-4.73h0c5.54,3.19,10,11,10,17.37V47a5.41,5.41,0,0,1,4.66.72h0a16,16,0,0,1,7.22,12.51v.53l5.1,3a10.49,10.49,0,0,1,4.76,8.23c0,3-2.13,4.26-4.76,2.75L373.54,50.82a10.49,10.49,0,0,1-4.75-8.23C368.79,39.55,370.91,38.32,373.54,39.84Z" style="fill:#f0f0f0"></path></g><g id="freepik--clouds--inject-3"><path d="M74.37,103.93l-6.64,3.84c0-.3.06-.59.06-.88V105c0-3.43-2.41-4.82-5.37-3.1a10.35,10.35,0,0,0-3.2,3.07c-.49-4.3-3.87-5.91-8-3.54-4.44,2.56-8,8.79-8,13.92v2.87a7.52,7.52,0,0,0,.68,3.34l-5.52,3.18a6.6,6.6,0,0,0-3,5.16c0,1.9,1.34,2.67,3,1.72l36-20.78a6.57,6.57,0,0,0,3-5.16C77.35,103.76,76,103,74.37,103.93Z" style="fill:#f0f0f0"></path><path d="M104.06,44l-3.66,1.41V37.36c0-6.4-5.11-7.93-10.65-4.73h0c-5.54,3.19-10,11-10,17.37v1.17a5.41,5.41,0,0,0-4.66.72h0A16,16,0,0,0,67.84,64.4v.53l-5.1,2.95A10.49,10.49,0,0,0,58,76.11c0,3,2.13,4.26,4.76,2.75L104.06,55a10.52,10.52,0,0,0,4.75-8.23C108.81,43.73,106.68,42.5,104.06,44Z" style="fill:#f0f0f0"></path></g></g><g id="freepik--Stars--inject-3"><g id="freepik--stars--inject-3"><path d="M111.26,82.33a1.08,1.08,0,1,1-1.53,0A1.09,1.09,0,0,1,111.26,82.33Z" style="fill:#f0f0f0"></path><path d="M121.24,87.05a1.76,1.76,0,1,1-2.45,2.54,1.76,1.76,0,0,1,2.45-2.54Z" style="fill:#f0f0f0"></path><path d="M444,34.84a1.08,1.08,0,1,1-.6,1.41A1.09,1.09,0,0,1,444,34.84Z" style="fill:#f0f0f0"></path><path d="M452.35,27.66a1.76,1.76,0,1,1,1.32,3.27,1.76,1.76,0,0,1-1.32-3.27Z" style="fill:#f0f0f0"></path><path d="M388.93,150.76a1.77,1.77,0,1,1-1.76-1.76A1.76,1.76,0,0,1,388.93,150.76Z" style="fill:#f0f0f0"></path><path d="M383.66,155.58a1.06,1.06,0,1,1-1.05-1.05A1,1,0,0,1,383.66,155.58Z" style="fill:#f0f0f0"></path><path d="M380.68,149a.85.85,0,1,1-.85-.85A.85.85,0,0,1,380.68,149Z" style="fill:#f0f0f0"></path><path d="M277.86,104.26a1.33,1.33,0,1,1-1.82.49A1.33,1.33,0,0,1,277.86,104.26Z" style="fill:#e0e0e0"></path><path d="M281.16,99.87a.78.78,0,1,1-1.06.29A.78.78,0,0,1,281.16,99.87Z" style="fill:#f0f0f0"></path><path d="M293,186.87a1.32,1.32,0,1,1-1.81.48A1.33,1.33,0,0,1,293,186.87Z" style="fill:#e0e0e0"></path><path d="M373,89.87a1.32,1.32,0,1,1-1.81.48A1.33,1.33,0,0,1,373,89.87Z" style="fill:#e0e0e0"></path><path d="M296.32,182.48a.77.77,0,0,1,.28,1.06.78.78,0,1,1-1.34-.78A.77.77,0,0,1,296.32,182.48Z" style="fill:#f0f0f0"></path><path d="M472.24,143.27l-2.5.87L469,146.7a.3.3,0,0,1-.53.1l-1.6-2.12-2.64.12a.3.3,0,0,1-.27-.47l1.52-2.17-.93-2.49a.3.3,0,0,1,.37-.39l2.54.77,2.07-1.65a.3.3,0,0,1,.49.23l.05,2.65,2.21,1.46A.3.3,0,0,1,472.24,143.27Z" style="fill:#f0f0f0"></path><path d="M324.61,135.61l-2.51.86-.7,2.56a.31.31,0,0,1-.54.1L319.27,137l-2.65.11a.29.29,0,0,1-.26-.47l1.51-2.17-.93-2.48a.3.3,0,0,1,.37-.4l2.54.77,2.07-1.65a.3.3,0,0,1,.49.23l0,2.65,2.21,1.46A.31.31,0,0,1,324.61,135.61Z" style="fill:#f0f0f0"></path><path d="M454.19,227.63l-1.46.51-.42,1.5a.18.18,0,0,1-.31.06l-.94-1.24-1.55.07a.18.18,0,0,1-.16-.28l.89-1.27-.54-1.46a.17.17,0,0,1,.21-.23l1.49.45,1.22-1a.18.18,0,0,1,.29.14l0,1.55,1.29.86A.17.17,0,0,1,454.19,227.63Z" style="fill:#f0f0f0"></path><path d="M111.93,152.88l-4,1.4-1.14,4.11a.48.48,0,0,1-.85.17l-2.58-3.41-4.26.19a.48.48,0,0,1-.42-.76l2.44-3.5-1.5-4a.48.48,0,0,1,.6-.63l4.08,1.24,3.34-2.66a.49.49,0,0,1,.79.37l.08,4.26L112,152A.48.48,0,0,1,111.93,152.88Z" style="fill:#f0f0f0"></path><g id="freepik--Star--inject-3"><g style="opacity:0.5"><path d="M319,75.44a9.9,9.9,0,1,1,9.9-9.9A9.91,9.91,0,0,1,319,75.44Zm0-19.28a9.39,9.39,0,1,0,9.39,9.38A9.39,9.39,0,0,0,319,56.16Z" style="fill:#407BFF"></path></g><path d="M321.87,65.55A2.83,2.83,0,1,1,319,62.72,2.82,2.82,0,0,1,321.87,65.55Z" style="fill:#f0f0f0"></path></g><g id="freepik--star--inject-3"><g style="opacity:0.5"><path d="M64.55,216.49a9.9,9.9,0,1,1,9.89-9.9A9.91,9.91,0,0,1,64.55,216.49Zm0-19.29a9.39,9.39,0,1,0,9.38,9.39A9.4,9.4,0,0,0,64.55,197.2Z" style="fill:#407BFF"></path></g><path d="M67.38,206.59a2.83,2.83,0,1,1-2.83-2.83A2.83,2.83,0,0,1,67.38,206.59Z" style="fill:#f0f0f0"></path></g></g></g><g id="freepik--Device--inject-3"><g id="freepik--Mobile--inject-3"><g id="freepik--mobile--inject-3"><path d="M398.12,401l-111.9,64.6a12.06,12.06,0,0,1-11.68.22L49.25,335.76c-3.55-2.05-6.43-6.63-6.43-10.24s2.88-8.19,6.43-10.23l111.49-64.37a14.26,14.26,0,0,1,12.85,0L398.12,380.55c3.55,2.05,6.43,6.63,6.43,10.24S401.67,399,398.12,401Z" style="fill:#407BFF"></path><path d="M160.74,250.92,49.25,315.29c-3.55,2-6.43,6.63-6.43,10.23s2.88,8.19,6.43,10.24L274.54,465.84a12.44,12.44,0,0,0,5.59,1.38V312.43L173.59,250.92A14.26,14.26,0,0,0,160.74,250.92Z" style="opacity:0.4"></path><path d="M286.22,465.62,398.12,401c3.55-2,6.43-6.63,6.43-10.23s-2.88-8.19-6.43-10.24l-118-68.12V467.22A11.92,11.92,0,0,0,286.22,465.62Z" style="opacity:0.25"></path><path d="M283.56,454.11a12.58,12.58,0,0,1-11.34,0l-223-128.75c-4.8-2.77-4.8-7.3,0-10.06l111.51-64.38a14.26,14.26,0,0,1,12.85,0L398.11,380.55c3.54,2,3.54,5.38,0,7.42Z" style="fill:#407BFF"></path><path d="M283.56,454.11a12.58,12.58,0,0,1-11.34,0l-223-128.75c-4.8-2.77-4.8-7.3,0-10.06l111.51-64.38a14.26,14.26,0,0,1,12.85,0L398.11,380.55c3.54,2,3.54,5.38,0,7.42Z" style="opacity:0.15"></path><path d="M272.73,441.15a13.56,13.56,0,0,1-12.22,0L68.62,330.36c-3.37-1.95-3.37-5.1,0-7.05l104.9-60.56a13.56,13.56,0,0,1,12.22,0L377.62,373.54c3.36,1.94,3.36,5.11,0,7Z" style="fill:#37474f"></path><path d="M179.26,261.32a12.37,12.37,0,0,0-5.74,1.43L68.62,323.31c-3.37,1.95-3.37,5.1,0,7.05l20.8,12L179.26,285Z" style="fill:#263238"></path><path d="M185.81,267.34a13.56,13.56,0,0,0-12.22,0L68.7,327.89a6.29,6.29,0,0,0-1.6,1.28,6.53,6.53,0,0,0,1.52,1.19L260.51,441.15a13.56,13.56,0,0,0,12.22,0l104.89-60.56a6.36,6.36,0,0,0,1.59-1.26,6.31,6.31,0,0,0-1.51-1.21Z" style="fill:#455a64"></path><path d="M107,295l18.59-10.73c1.11-.64,1.16-1.64.12-2.25a4.31,4.31,0,0,0-3.89.08L103.2,292.81c-1.11.64-1.17,1.65-.13,2.25A4.3,4.3,0,0,0,107,295Z" style="fill:#263238"></path><path d="M138.89,276.58a1.14,1.14,0,0,0,0-2.17,4.17,4.17,0,0,0-3.77,0,1.14,1.14,0,0,0,0,2.17A4.17,4.17,0,0,0,138.89,276.58Z" style="fill:#263238"></path><path d="M146.43,272.22a1.14,1.14,0,0,0,0-2.17,4.17,4.17,0,0,0-3.77,0,1.14,1.14,0,0,0,0,2.17A4.11,4.11,0,0,0,146.43,272.22Z" style="fill:#263238"></path><path d="M86.14,307a1.14,1.14,0,0,0,0-2.17,4.17,4.17,0,0,0-3.77,0,1.14,1.14,0,0,0,0,2.17A4.11,4.11,0,0,0,86.14,307Z" style="fill:#263238"></path><path d="M93.67,302.68a1.15,1.15,0,0,0,0-2.18,4.17,4.17,0,0,0-3.77,0,1.15,1.15,0,0,0,0,2.18A4.17,4.17,0,0,0,93.67,302.68Z" style="fill:#263238"></path><path d="M119.92,369.19a4.3,4.3,0,0,1,2,3.33,1.25,1.25,0,0,1-.56,1.18c-.24.13-1.15.68-1.4.82a1.48,1.48,0,0,1-1.45-.17L92.39,359.27a4.33,4.33,0,0,1-2-3.34,1.29,1.29,0,0,1,.51-1.14c.25-.16,1.2-.71,1.45-.85a1.5,1.5,0,0,1,1.45.16Z" style="fill:#407BFF"></path><path d="M119.92,369.19a4.3,4.3,0,0,1,2,3.33,1.25,1.25,0,0,1-.56,1.18c-.24.13-1.15.68-1.4.82a1.48,1.48,0,0,1-1.45-.17L92.39,359.27a4.33,4.33,0,0,1-2-3.34,1.29,1.29,0,0,1,.51-1.14c.25-.16,1.2-.71,1.45-.85a1.5,1.5,0,0,1,1.45.16Z" style="opacity:0.4"></path><path d="M118.52,370,92.39,354.91c-1.11-.64-2-.18-2,1a4.33,4.33,0,0,0,2,3.34l26.13,15.08c1.11.64,2,.19,2-1A4.3,4.3,0,0,0,118.52,370Z" style="fill:#407BFF"></path><path d="M118.52,370,92.39,354.91c-1.11-.64-2-.18-2,1a4.33,4.33,0,0,0,2,3.34l26.13,15.08c1.11.64,2,.19,2-1A4.3,4.3,0,0,0,118.52,370Z" style="opacity:0.30000000000000004"></path><path d="M85,349a4.3,4.3,0,0,1,2,3.33,1.26,1.26,0,0,1-.56,1.17l-1.4.82a1.45,1.45,0,0,1-1.45-.16l-12.32-7.11a4.32,4.32,0,0,1-2-3.34,1.26,1.26,0,0,1,.51-1.14c.25-.16,1.2-.71,1.45-.85a1.49,1.49,0,0,1,1.45.17Z" style="fill:#407BFF"></path><path d="M85,349a4.3,4.3,0,0,1,2,3.33,1.26,1.26,0,0,1-.56,1.17l-1.4.82a1.45,1.45,0,0,1-1.45-.16l-12.32-7.11a4.32,4.32,0,0,1-2-3.34,1.26,1.26,0,0,1,.51-1.14c.25-.16,1.2-.71,1.45-.85a1.49,1.49,0,0,1,1.45.17Z" style="opacity:0.4"></path><path d="M83.55,349.81,71.23,342.7c-1.11-.64-2-.19-2,1a4.32,4.32,0,0,0,2,3.34l12.32,7.11c1.11.64,2,.18,2-1A4.29,4.29,0,0,0,83.55,349.81Z" style="fill:#407BFF"></path><path d="M83.55,349.81,71.23,342.7c-1.11-.64-2-.19-2,1a4.32,4.32,0,0,0,2,3.34l12.32,7.11c1.11.64,2,.18,2-1A4.29,4.29,0,0,0,83.55,349.81Z" style="opacity:0.30000000000000004"></path></g></g><g id="freepik--Button--inject-3"><path id="freepik--shadow--inject-3" d="M271.55,434.83a11.79,11.79,0,0,1-5.83-1.44l-23.84-13.76a5.6,5.6,0,0,1,0-10.2l76.65-44.25a12.6,12.6,0,0,1,11.66,0L354,379a5.58,5.58,0,0,1,0,10.19l-76.64,44.25A11.82,11.82,0,0,1,271.55,434.83Z" style="opacity:0.25"></path><g id="freepik--button--inject-3"><path d="M354.32,373.94a3,3,0,0,0-1.8-2.5l-23.83-13.76a9.57,9.57,0,0,0-8.66,0l-76.65,44.25a3,3,0,0,0-1.79,2.5V414.5a3,3,0,0,0,1.79,2.5l23.84,13.76a9.57,9.57,0,0,0,8.66,0l76.64-44.25a3,3,0,0,0,1.8-2.5Z" style="fill:#407BFF"></path><path d="M352.52,371.44l-23.83-13.76a9.57,9.57,0,0,0-8.66,0l-48.48,28V431.8a8.86,8.86,0,0,0,4.33-1l76.64-44.25a3,3,0,0,0,1.8-2.5V373.94A3,3,0,0,0,352.52,371.44Z" style="opacity:0.15"></path><path d="M243.38,401.93a3,3,0,0,0-1.79,2.5V414.5a3,3,0,0,0,1.79,2.5l23.84,13.76a8.86,8.86,0,0,0,4.33,1V385.67Z" style="opacity:0.25"></path><path d="M267.22,420.69l-23.84-13.76c-2.39-1.38-2.39-3.62,0-5L320,357.68a9.57,9.57,0,0,1,8.66,0l23.83,13.76c2.39,1.38,2.39,3.62,0,5l-76.64,44.25A9.57,9.57,0,0,1,267.22,420.69Z" style="fill:#407BFF"></path><g style="opacity:0.2"><path d="M267.22,420.69l-23.84-13.76c-2.39-1.38-2.39-3.62,0-5L320,357.68a9.57,9.57,0,0,1,8.66,0l23.83,13.76c2.39,1.38,2.39,3.62,0,5l-76.64,44.25A9.57,9.57,0,0,1,267.22,420.69Z" style="fill:#fff"></path></g><text transform="matrix(0.87, -0.5, 0.87, 0.5, 271.51, 411.8)" style="font-size:24.411169052124023px;fill:#fff;font-family:Rubik-Bold, Rubik;font-weight:700;letter-spacing:-0.006990758519889648em">S<tspan x="16.28" y="0" style="letter-spacing:-0.06999259442267197em">T</tspan><tspan x="29.98" y="0" style="letter-spacing:-0.000005000542575028361em">A</tspan><tspan x="47.5" y="0" style="letter-spacing:-0.005995650547459006em">R</tspan><tspan x="64.32" y="0" style="letter-spacing:-0.023982602189836024em">T</tspan></text></g></g></g><g id="freepik--Character--inject-3"><g id="freepik--Bottom--inject-3"><g id="freepik--Leg--inject-3"><path d="M403.05,311.14c4.16-1.78,11.18-4.62,11.34-4.65a4.84,4.84,0,0,1,5.19,2.78c.91,1.78,6,2.86,6,9.33,0,1.76-5.06,3.17-6.44,1.76-1.67,1.7-10.64,8.82-10.64,8.82Z" style="fill:#ffa8a7"></path><path d="M418.77,336.42c.12.88-.15,1.46,1.09,2.41s6.05,2.35,10.08,1.66,9.07-2.71,9.74-8.3-.1-7.92-1.31-10.35-4.34-5.72-5.28-7.65-1-5.19-1.32-7-1-4.46-3.54-5.77a7.51,7.51,0,0,0-4.61-.87l-2.45,1.21s6.21,18.19,8,22.75S418.77,336.42,418.77,336.42Z" style="fill:#263238"></path><path d="M437.89,324.79c-1.3-5.56-6.11-7.88-7-10.65s.1-7.77-3-10.51a8,8,0,0,0-6.76-1.88s-5.34,1.57-7.49,3.13a10.61,10.61,0,0,0-3,3l1.18-.47c2.13-.45,5.72,1.21,6.76,2.89a21.64,21.64,0,0,1,1.41,2.41,11.08,11.08,0,0,0,1.4,2.63c.36.45,1.32,1.11,1.29,1.74s-1,.06-1.31-.12c-.75-.37-2.16-.9-2.64.15a3.31,3.31,0,0,0-.19,1.45,4.8,4.8,0,0,1-.17,1.85,3.31,3.31,0,0,1-1.08,1.53l-.68.58s.74.56,2,1.65a20.71,20.71,0,0,1,3.59,4.78s-2,1.66-3.29,2.89-.86,4.1.06,4.8,3.25,2.69,8.56,2.53c7.95-.22,9.94-4.24,10.63-6.57S438.72,328.32,437.89,324.79Z" style="fill:#407BFF"></path><path d="M437.89,324.79c-1.3-5.56-6.11-7.88-7-10.65s.1-7.77-3-10.51a8,8,0,0,0-6.76-1.88s-5.34,1.57-7.49,3.13a10.61,10.61,0,0,0-3,3l1.18-.47c2.13-.45,5.72,1.21,6.76,2.89a21.64,21.64,0,0,1,1.41,2.41,11.08,11.08,0,0,0,1.4,2.63c.36.45,1.32,1.11,1.29,1.74s-1,.06-1.31-.12c-.75-.37-2.16-.9-2.64.15a3.31,3.31,0,0,0-.19,1.45,4.8,4.8,0,0,1-.17,1.85,3.31,3.31,0,0,1-1.08,1.53l-.68.58s.74.56,2,1.65a20.71,20.71,0,0,1,3.59,4.78s-2,1.66-3.29,2.89-.86,4.1.06,4.8,3.25,2.69,8.56,2.53c7.95-.22,9.94-4.24,10.63-6.57S438.72,328.32,437.89,324.79Z" style="opacity:0.15"></path><path d="M421.69,328c1.16-1.4,6-2.52,8.58-1.76.43-.59.57-.89-.11-1.38a10.22,10.22,0,0,0-6.28.12,7.59,7.59,0,0,0-3.06,1.73A1.56,1.56,0,0,0,421.69,328Z" style="fill:#fafafa"></path><path d="M420,325.67c1-1.53,5.64-3.24,8.29-2.8.36-.63.46-1-.28-1.35a10.19,10.19,0,0,0-6.21.88,7.77,7.77,0,0,0-2.82,2.09S419.16,325.49,420,325.67Z" style="fill:#fafafa"></path><path d="M379.88,276.61l25.45-6.41c1.24,5.13,2,15.26-.12,23s-9.32,20.66-9.32,20.66l9.93-4s3.31-.12,6.34,4.55,0,11.71,0,11.71a230.07,230.07,0,0,1-26.33,19.1c-13.15,7.91-21.46,10.37-28.64,4.64-4.24-3.38-4.27-10.44-2.71-19.45,1.76-10.12,25.36-53.82,25.36-53.82" style="fill:#455a64"></path><path d="M406.48,310a3.93,3.93,0,0,0-.66-.08l-9.93,4s5.81-10.45,8.53-18.19l-22.11-7.15c1.38,7.93,7.84,15.37,7.84,15.37s-9.35,23-13.23,34.55-10.72,11.25-17,9.34-6.26-10.41-6.26-10.51c-.37,5.71.48,10.15,3.57,12.61,7.18,5.73,15.49,3.27,28.64-4.64a217.09,217.09,0,0,0,22.53-16Z" style="fill:#37474f"></path><path d="M395.07,324.76a61.94,61.94,0,0,1,14.79-13c-2.28-2-4-1.85-4-1.85l-9.93,4s-8.53,18.47-15.48,21.28A32.91,32.91,0,0,0,395.07,324.76Z" style="opacity:0.15"></path></g><g id="freepik--Le--inject-3"><path d="M427.61,324.13c4.16-1.77,11.18-4.62,11.34-4.65a4.86,4.86,0,0,1,5.19,2.78c.91,1.79,6,2.86,6,9.33,0,1.76-5.05,3.17-6.43,1.77-1.67,1.7-10.65,8.81-10.65,8.81Z" style="fill:#ffa8a7"></path><path d="M443.33,349.41c.12.88-.31,1.28.93,2.24s6,2.53,10.05,1.85,9.08-3.15,9.74-7.83c.79-5.58.09-8.4-1.12-10.84s-4.34-5.71-5.28-7.65-1-5.18-1.32-7-1-4.46-3.54-5.77a7.42,7.42,0,0,0-4.61-.87l-2.46,1.21s6.22,18.19,8,22.75S443.33,349.41,443.33,349.41Z" style="fill:#263238"></path><path d="M462.45,337.78c-1.3-5.56-6.11-7.88-7-10.65s.1-7.76-3-10.51a8,8,0,0,0-6.77-1.87s-5.33,1.56-7.48,3.12a10.71,10.71,0,0,0-3,3l1.18-.48c2.13-.44,5.72,1.21,6.76,2.9a20,20,0,0,1,1.41,2.41,10.83,10.83,0,0,0,1.4,2.62c.36.45,1.32,1.12,1.29,1.74s-1,.06-1.32-.11c-.74-.38-2.15-.91-2.63.15a3.28,3.28,0,0,0-.19,1.44,5,5,0,0,1-.17,1.86,3.36,3.36,0,0,1-1.08,1.53l-.68.57s.74.56,2,1.65A20.71,20.71,0,0,1,446.8,342s-2,1.67-3.29,2.9-.86,4.09.06,4.8,3.25,2.68,8.56,2.53c7.95-.23,10.09-4.42,10.57-6.69A15.12,15.12,0,0,0,462.45,337.78Z" style="fill:#407BFF"></path><path d="M462.45,337.78c-1.3-5.56-6.11-7.88-7-10.65s.1-7.76-3-10.51a8,8,0,0,0-6.77-1.87s-5.33,1.56-7.48,3.12a10.71,10.71,0,0,0-3,3l1.18-.48c2.13-.44,5.72,1.21,6.76,2.9a20,20,0,0,1,1.41,2.41,10.83,10.83,0,0,0,1.4,2.62c.36.45,1.32,1.12,1.29,1.74s-1,.06-1.32-.11c-.74-.38-2.15-.91-2.63.15a3.28,3.28,0,0,0-.19,1.44,5,5,0,0,1-.17,1.86,3.36,3.36,0,0,1-1.08,1.53l-.68.57s.74.56,2,1.65A20.71,20.71,0,0,1,446.8,342s-2,1.67-3.29,2.9-.86,4.09.06,4.8,3.25,2.68,8.56,2.53c7.95-.23,10.09-4.42,10.57-6.69A15.12,15.12,0,0,0,462.45,337.78Z" style="opacity:0.15"></path><path d="M446.25,341c1.16-1.41,6-2.53,8.58-1.77.43-.58.56-.89-.11-1.37a10.26,10.26,0,0,0-6.28.11,7.73,7.73,0,0,0-3.06,1.73A1.57,1.57,0,0,0,446.25,341Z" style="fill:#fafafa"></path><path d="M444.54,338.67c1-1.54,5.65-3.24,8.3-2.81.36-.63.45-.95-.28-1.35a10.28,10.28,0,0,0-6.21.88,7.83,7.83,0,0,0-2.83,2.1S443.72,338.49,444.54,338.67Z" style="fill:#fafafa"></path><path d="M437.43,327.07c-3-4.68-6.34-4.55-6.34-4.55l-9.93,4s7.72-12.63,10.64-20.11c3.47-8.85,4.74-14.1,3.2-26.9l-35.81-.63-19.31-2.25A34.19,34.19,0,0,0,393.3,303.1s-11.75,29.85-13.51,40c-1.56,9-1.53,16.07,2.71,19.45,7.18,5.73,15.49,3.27,28.64-4.64a230.07,230.07,0,0,0,26.33-19.1S440.47,331.75,437.43,327.07Z" style="fill:#455a64"></path><path d="M420.34,337.39a61.7,61.7,0,0,1,14.77-13c-2.52-2.13-4-1.88-4-1.88l-9.93,4s-8.53,18.47-15.48,21.28A32.88,32.88,0,0,0,420.34,337.39Z" style="fill:#37474f"></path></g></g><g id="freepik--Top--inject-3"><path d="M367.32,287.68c5.22-6.75,4.7-6,6-14.37s6-43.08,6-43.08L373.57,215s-10,3.05-12.39,12.16c-3.48,13.15-6.9,46.82-6.9,46.82l-2.9,6.1Z" style="fill:#ffa8a7"></path><path d="M375.12,214.18s-6.26,1.23-10.48,5.11c-3.13,2.87-4.47,9-5.69,14.61-1.44,6.62-3.11,20.7-3.11,20.7s9.57,9.27,21.32,7.76l6.35-27.84Z" style="fill:#455a64"></path><path d="M424.14,228.44a194.7,194.7,0,0,1,11.13,55.75c-6.81,7.91-46.39,15.74-59.25-.32,2.83-19-5.25-25.34-8-48.05-1.22-10-4.07-19.27,13.43-23.87s30.14-1.33,30.14-1.33C417.83,214,422,222.72,424.14,228.44Z" style="fill:#407BFF"></path><path d="M438.54,201.82c1.23-2.52-.64-7.82-4.45-12.74s-9.66-7.62-12.24-3.89,2.31,12.84,5.93,15.28S436.74,205.49,438.54,201.82Z" style="fill:#37474f"></path><path d="M425.38,108.08c-2.72.39-1.09,6.06,0,10.58,1,4.17,1.81,7.49,1.18,8.18-.9,1-2.91-3.49-5.41-4.34-1.26-.43-2.76-.12-2.93.84s.62,1.25,2,3.34c1.06,1.58,3.12,8.24,6.15,11.17,1.18,1.15,2,4.94,2.11,7.87.58,13-.53,28.35-.53,28.35s-4.39,7.82-11.31,20.89c-3.18,6-8.53,15-8.53,15-1,6.26,3.58,20.74,16.66,20.16-1.63-5.51,11.12-27.44,17.41-39.11,4.4-8.17,4.92-9.23,4.79-12.86-.37-10.53-1.27-12.11-2.22-20.8-1.09-9.88-1.47-14.88-1.56-15.95-.36-4.26.84-6.19,1.21-8.62.54-3.6.72-6.17-.23-9.09a3,3,0,0,0-1.52-2c-.42-.16-.88-.17-1.29-.33a16.76,16.76,0,0,0-2-1c-.93-.21-2.05.62-3,.36-.4-.12-1.37-1-1.79-1a7,7,0,0,0-1.89.61c-.38.11-1.3.74-1.59.28a57.13,57.13,0,0,1-2.18-6.17C427.89,111.25,426.93,107.86,425.38,108.08Z" style="fill:#ffa8a7"></path><path d="M430.89,125.77c1,2.61,1.3,5.7,2.83,6.2a2.55,2.55,0,0,1,4.59-.75,2,2,0,0,0,1.75-1.15,2.08,2.08,0,0,0,3-.28c-.15.87-1.05,2.39-2.54,1.49,0,0-1.7,1.79-3.32.53,0,0,1.9,1.33,1.64,4.85a7.7,7.7,0,0,0-2.72-4.32,3.17,3.17,0,0,1-3.23.28C431.27,131.71,430.89,125.77,430.89,125.77Z" style="fill:#f28f8f"></path><path d="M404.91,209.67a38.74,38.74,0,0,0,5.94-5.93c2.76-3.28,11-18.55,11-18.55s.33,5.62,5.62,11.28c6.75,7.22,11.07,5.35,11.07,5.35s-5.22,9.7-7.93,15.74c-2.34,5.23-5.56,11.87-4.79,15.67-1.4,2.07-7.68.72-14.53-5.55C403.89,220.9,404.91,209.67,404.91,209.67Z" style="fill:#455a64"></path><path d="M376.82,194.07a13.79,13.79,0,0,0,5.95,1.3c1.76-.13,3.5.43,5.29.44,3.84,0,5.54,8.61,8.52,6.15.38-4.2,7.13-13.8,5.9-24.59-.62-5.47-3.58-10.64-9.09-10.89.27,0-1.34-2.73-1.57-2.95a9.44,9.44,0,0,0-3.54-2,20.06,20.06,0,0,0-8.64-.76,35.29,35.29,0,0,0-8.45,1.75c-2.89,1-5.65,2.15-8.74,1.27-2.6-.73-1,4.33.2,5.1-1.06.28-1.86-1.46-2.74-1.5s-1,1.47-1,2.08c.28,2.75.63,4.5,2.58,6.4-1.89,1.76-.43,3.9,1.25,5.13,2,1.48,3.15,3.87,4.76,5.81A24.55,24.55,0,0,0,376.82,194.07Z" style="fill:#37474f"></path><path d="M384.61,174c-1.42,3.14,0,12.9,1.77,21.66a11.78,11.78,0,0,0,1.68.14c3.84,0,5.54,8.61,8.52,6.15.38-4.2,7.13-13.8,5.9-24.59-.62-5.47-3.58-10.64-9.09-10.89A14,14,0,0,0,384.61,174Z" style="fill:#455a64"></path><path d="M384.61,174a9.73,9.73,0,0,0,7.84,5.62,23.89,23.89,0,0,0,.73,8.14,4.42,4.42,0,0,0,.79,1.56,2,2,0,0,0,1.54.74c.79,0,1.06-.54,1.23-1.18a19.77,19.77,0,0,1,.93-2.42,4.7,4.7,0,0,1,.6-1c1.07-1.24,4.45-3,6.51.59s-.4,9.21-3.16,10.33c-4.75,1.92-6.19-1.3-6.19-1.3l2.62,15.62c-5.05,7.63-18.62,8.46-16.23,4.2l-1.66-6.74a23.17,23.17,0,0,1-5.92.88c-3.62-.27-7-4-8.41-7.79-3-7.75-3.9-19.42-2.13-25.11C370.77,181,377.48,175.7,384.61,174Z" style="fill:#ffa8a7"></path><path d="M382.66,186.54a1.65,1.65,0,1,1-1.88-1.38A1.65,1.65,0,0,1,382.66,186.54Z" style="fill:#263238"></path><path d="M369.62,188.77a1.65,1.65,0,1,1-1.88-1.38A1.64,1.64,0,0,1,369.62,188.77Z" style="fill:#263238"></path><path d="M380.16,208.21s6.86-2.46,9.53-4.17a14.57,14.57,0,0,0,4.38-5.44,16.73,16.73,0,0,1-2.05,5.45c-1.83,2.78-11.38,6.1-11.38,6.1Z" style="fill:#f28f8f"></path><polygon points="374.85 184.54 376.43 195.18 370.9 195.25 374.85 184.54" style="fill:#f28f8f"></polygon><path d="M380.07,182l4,1.26a2.19,2.19,0,0,0-1.4-2.68A2,2,0,0,0,380.07,182Z" style="fill:#263238"></path><path d="M364.78,186.09l3.21-2.7a2,2,0,0,0-2.91-.31A2.2,2.2,0,0,0,364.78,186.09Z" style="fill:#263238"></path><path d="M381.64,196l-5.28,3.18a3,3,0,0,0,4.15,1.13A3.24,3.24,0,0,0,381.64,196Z" style="fill:#b16668"></path><path d="M381.43,197.44a2,2,0,0,1,.59-.11,3.22,3.22,0,0,1-1.51,3,1.63,1.63,0,0,0-.19.09,1.4,1.4,0,0,1-.1-.16A2.17,2.17,0,0,1,381.43,197.44Z" style="fill:#f28f8f"></path><path d="M354.28,274c-1.48,2.51-8.8,16.13-11.59,20.8-2.05,3.4-8.29,14.78-9.36,17.15-2.17,4.82-5.41,10.36-4.86,15.86.13,1.34.5,2.56.5,3.91,0,1.55-.19,3.09.78,4.38.29.38.79.66,1,1.09s.28,1.36.63,1.93c1,1.58,2.16,0,2.77-.93,2.48-3.87,3.93-8.28,6.41-12.13a39.7,39.7,0,0,1,3.34-4.78c.23-.26.92-.74,1.29-.56s.22,1,.22,1.37c0,1-.05,1.94,0,2.91a4.75,4.75,0,0,0,1.54,3.5,1.7,1.7,0,0,0,2,.21,1.64,1.64,0,0,0,.56-1.13c.05-.43,0-.87,0-1.3,0-1.79,1-3.41,1.5-5.13a17.14,17.14,0,0,0,.45-5.35,31,31,0,0,1,.09-5.37,10.62,10.62,0,0,1,2-5.22c1.18-1.5,4.19-5.52,6.65-8.55,4.39-5.4,7.77-9.29,10.8-14Z" style="fill:#ffa8a7"></path></g></g></svg>